<svg width="49" height="49" viewBox="0 0 49 49" fill="none" xmlns="http://www.w3.org/2000/svg">
<rect width="49" height="49" rx="9" fill="#303D40"/>
<path d="M30 18C32.188 18 34.2865 18.8692 35.8336 20.4164C37.3808 21.9635 38.25 24.062 38.25 26.25V35.875H32.75V26.25C32.75 25.5207 32.4603 24.8212 31.9445 24.3055C31.4288 23.7897 30.7293 23.5 30 23.5C29.2707 23.5 28.5712 23.7897 28.0555 24.3055C27.5397 24.8212 27.25 25.5207 27.25 26.25V35.875H21.75V26.25C21.75 24.062 22.6192 21.9635 24.1664 20.4164C25.7135 18.8692 27.812 18 30 18V18Z" stroke="#D9D9D9" stroke-width="2" stroke-linecap="round" stroke-linejoin="round"/>
<path d="M16.25 19.375H10.75V35.875H16.25V19.375Z" stroke="#D9D9D9" stroke-width="2" stroke-linecap="round" stroke-linejoin="round"/>
<path d="M13.5 15.25C15.0188 15.25 16.25 14.0188 16.25 12.5C16.25 10.9812 15.0188 9.75 13.5 9.75C11.9812 9.75 10.75 10.9812 10.75 12.5C10.75 14.0188 11.9812 15.25 13.5 15.25Z" stroke="#D9D9D9" stroke-width="2" stroke-linecap="round" stroke-linejoin="round"/>
</svg>
