<svg width="49" height="49" viewBox="0 0 49 49" fill="none" xmlns="http://www.w3.org/2000/svg">
<rect width="49" height="49" rx="9" fill="#303D40"/>
<path d="M41.625 12.125C40.3083 13.0538 38.8504 13.7642 37.3075 14.2288C36.4794 13.2766 35.3788 12.6017 34.1547 12.2954C32.9305 11.9891 31.6418 12.0661 30.4629 12.5161C29.2839 12.9661 28.2716 13.7673 27.5628 14.8114C26.8541 15.8554 26.4831 17.092 26.5 18.3538V19.7288C24.0836 19.7914 21.6893 19.2555 19.5301 18.1687C17.371 17.082 15.5142 15.4781 14.125 13.5C14.125 13.5 8.625 25.875 21 31.375C18.1682 33.2972 14.7948 34.261 11.375 34.125C23.75 41 38.875 34.125 38.875 18.3125C38.8737 17.9295 38.8369 17.5474 38.765 17.1713C40.1683 15.7873 41.1586 14.04 41.625 12.125V12.125Z" stroke="#D9D9D9" stroke-width="2" stroke-linecap="round" stroke-linejoin="round"/>
</svg>
