<svg width="49" height="49" viewBox="0 0 49 49" fill="none" xmlns="http://www.w3.org/2000/svg">
<rect width="49" height="49" rx="9" fill="#303D40"/>
<path d="M31.375 11.75H17.625C13.828 11.75 10.75 14.828 10.75 18.625V32.375C10.75 36.172 13.828 39.25 17.625 39.25H31.375C35.172 39.25 38.25 36.172 38.25 32.375V18.625C38.25 14.828 35.172 11.75 31.375 11.75Z" stroke="#D9D9D9" stroke-width="2" stroke-linecap="round" stroke-linejoin="round"/>
<path d="M30 24.6338C30.1697 25.7781 29.9742 26.9468 29.4414 27.9736C28.9086 29.0005 28.0655 29.8332 27.0322 30.3533C25.9989 30.8734 24.8278 31.0544 23.6857 30.8707C22.5435 30.6869 21.4884 30.1476 20.6704 29.3296C19.8523 28.5116 19.3131 27.4565 19.1293 26.3143C18.9455 25.1721 19.1266 24.0011 19.6467 22.9678C20.1668 21.9344 20.9995 21.0914 22.0263 20.5586C23.0532 20.0258 24.2219 19.8303 25.3662 20C26.5335 20.1731 27.6141 20.717 28.4485 21.5514C29.283 22.3858 29.8269 23.4665 30 24.6338Z" stroke="#D9D9D9" stroke-width="2" stroke-linecap="round" stroke-linejoin="round"/>
<path d="M32.0625 17.9375H32.0754" stroke="#D9D9D9" stroke-width="2" stroke-linecap="round" stroke-linejoin="round"/>
</svg>
