<svg width="49" height="47" viewBox="0 0 49 47" fill="none" xmlns="http://www.w3.org/2000/svg">
<path d="M14.3125 39.4194C14.3125 43.0444 11.3418 46 7.65625 46C3.97073 46 1 43.0444 1 39.4194C1 35.7943 3.97073 32.8387 7.65625 32.8387C11.3418 32.8387 14.3125 35.7943 14.3125 39.4194Z" stroke="#5F7377" stroke-width="2"/>
<path d="M31.1562 39.4194C31.1562 43.0444 28.1855 46 24.5 46C20.8145 46 17.8438 43.0444 17.8438 39.4194C17.8438 35.7943 20.8145 32.8387 24.5 32.8387C28.1855 32.8387 31.1562 35.7943 31.1562 39.4194Z" stroke="#5F7377" stroke-width="2"/>
<path d="M48 39.4194C48 43.0444 45.0293 46 41.3438 46C37.6582 46 34.6875 43.0444 34.6875 39.4194C34.6875 35.7943 37.6582 32.8387 41.3438 32.8387C45.0293 32.8387 48 35.7943 48 39.4194Z" stroke="#5F7377" stroke-width="2"/>
<path d="M14.3125 23.5C14.3125 27.125 11.3418 30.0806 7.65625 30.0806C3.97073 30.0806 1 27.125 1 23.5C1 19.8749 3.97073 16.9193 7.65625 16.9193C11.3418 16.9193 14.3125 19.8749 14.3125 23.5Z" stroke="#5F7377" stroke-width="2"/>
<path d="M31.1562 23.5C31.1562 27.125 28.1855 30.0806 24.5 30.0806C20.8145 30.0806 17.8438 27.125 17.8438 23.5C17.8438 19.8749 20.8145 16.9193 24.5 16.9193C28.1855 16.9193 31.1562 19.8749 31.1562 23.5Z" stroke="#5F7377" stroke-width="2"/>
<path d="M48 23.5C48 27.125 45.0293 30.0806 41.3438 30.0806C37.6582 30.0806 34.6875 27.125 34.6875 23.5C34.6875 19.8749 37.6582 16.9193 41.3438 16.9193C45.0293 16.9193 48 19.8749 48 23.5Z" stroke="#5F7377" stroke-width="2"/>
<path d="M14.3125 7.58065C14.3125 11.2057 11.3418 14.1613 7.65625 14.1613C3.97073 14.1613 1 11.2057 1 7.58065C1 3.95559 3.97073 1 7.65625 1C11.3418 1 14.3125 3.95559 14.3125 7.58065Z" stroke="#5F7377" stroke-width="2"/>
<path d="M31.1562 7.58065C31.1562 11.2057 28.1855 14.1613 24.5 14.1613C20.8145 14.1613 17.8438 11.2057 17.8438 7.58065C17.8438 3.95559 20.8145 1 24.5 1C28.1855 1 31.1562 3.95559 31.1562 7.58065Z" stroke="#5F7377" stroke-width="2"/>
<path d="M48 7.58065C48 11.2057 45.0293 14.1613 41.3438 14.1613C37.6582 14.1613 34.6875 11.2057 34.6875 7.58065C34.6875 3.95559 37.6582 1 41.3438 1C45.0293 1 48 3.95559 48 7.58065Z" stroke="#5F7377" stroke-width="2"/>
</svg>
