<svg width="296" height="155" viewBox="0 0 296 155" fill="none" xmlns="http://www.w3.org/2000/svg">
<rect width="296" height="100" fill="#303D40"/>
<rect x="11" y="20.1996" width="269.58" height="77.784" transform="rotate(-4.08409 11 20.1996)" fill="#5F7377"/>
<rect x="19" y="6.35651" width="253" height="73" transform="rotate(-0.307204 19 6.35651)" fill="#D9D9D9"/>
<path d="M28.7617 29.3345C30.1045 29.4077 31.3211 29.6844 32.4116 30.1646C33.5021 30.6447 34.4339 31.3079 35.207 32.1543C35.9883 33.0007 36.5905 34.022 37.0137 35.2183C37.4368 36.4146 37.6484 37.7695 37.6484 39.2832C37.6484 40.7969 37.4368 42.1519 37.0137 43.3481C36.5905 44.5444 35.9883 45.5658 35.207 46.4121C34.4339 47.2585 33.5021 47.9217 32.4116 48.4019C31.3211 48.882 30.1045 49.1587 28.7617 49.2319V29.3345ZM31.0322 46.5952C31.5531 46.4325 32.0658 46.172 32.5703 45.814C33.083 45.4559 33.5387 44.9839 33.9375 44.3979C34.3444 43.812 34.6699 43.0999 34.9141 42.2617C35.1663 41.4154 35.2925 40.4225 35.2925 39.2832C35.2925 38.1439 35.1663 37.1551 34.9141 36.3169C34.6699 35.4705 34.3444 34.7544 33.9375 34.1685C33.5387 33.5825 33.083 33.1105 32.5703 32.7524C32.0658 32.3944 31.5531 32.134 31.0322 31.9712V46.5952ZM40.5171 36.0361H42.6899V44.4834C42.6899 46.1842 43.3532 47.0347 44.6797 47.0347C45.1273 47.0347 45.526 46.9451 45.876 46.7661C46.234 46.5789 46.5352 46.3267 46.7793 46.0093V36.0361H48.9521V49.2441L47.3408 48.0967C46.9665 48.3896 46.5026 48.6501 45.9492 48.8779C45.404 49.1058 44.8099 49.2197 44.167 49.2197C43.6624 49.2197 43.1864 49.1302 42.7388 48.9512C42.2993 48.764 41.9128 48.4954 41.5791 48.1455C41.2536 47.7874 40.9932 47.348 40.7979 46.8271C40.6107 46.2982 40.5171 45.6919 40.5171 45.0083V36.0361ZM57.5825 31.5439L59.853 29.0903V49H57.5825V31.5439ZM64.5283 46.3877C64.9352 46.6318 65.3584 46.8109 65.7979 46.9248C66.2454 47.0387 66.6646 47.0957 67.0552 47.0957C67.5597 47.0957 68.0195 47.0062 68.4346 46.8271C68.8577 46.6481 69.2158 46.3958 69.5088 46.0703C69.8099 45.7448 70.0418 45.3501 70.2046 44.8862C70.3755 44.4224 70.4609 43.9056 70.4609 43.3359C70.4609 42.7256 70.3674 42.1885 70.1802 41.7246C70.0011 41.2526 69.7489 40.8579 69.4233 40.5405C69.106 40.215 68.7316 39.9709 68.3003 39.8081C67.869 39.6372 67.4092 39.5518 66.9209 39.5518C66.6605 39.5518 66.396 39.5802 66.1274 39.6372C65.867 39.6942 65.5659 39.8 65.2241 39.9546L65.6636 39.0879L69.106 31.6904H64.3452L64.333 29.542H72.4629L68.752 37.623C70.1191 38.0951 71.1364 38.8234 71.8037 39.8081C72.4792 40.7928 72.8169 41.9484 72.8169 43.2749C72.8169 44.1457 72.6785 44.9473 72.4019 45.6797C72.1333 46.404 71.7467 47.0306 71.2422 47.5596C70.7458 48.0885 70.1476 48.4995 69.4478 48.7925C68.7479 49.0854 67.9707 49.2319 67.1162 49.2319C66.75 49.2319 66.3879 49.2035 66.0298 49.1465C65.6799 49.0977 65.3462 49.0285 65.0288 48.939C64.7114 48.8494 64.4185 48.7477 64.1499 48.6338C63.8813 48.5117 63.6494 48.3856 63.4541 48.2554L64.5283 46.3877ZM84.7432 28.9561L90.395 49H87.9536L87.0991 45.7651H82.375L81.5327 49H79.0913L84.7432 28.9561ZM86.5376 43.6167L85.2314 38.5996L84.731 36.2803L84.2549 38.5996L82.9365 43.6167H86.5376ZM91.1763 36.0361H93.4956L95.3267 41.6636L95.8882 43.6167L96.4375 41.6636L98.2319 36.0361H100.515L95.876 49.9644L91.1763 36.0361ZM102.724 35.8042L104.567 37.0859C105.072 36.6953 105.613 36.3901 106.191 36.1704C106.769 35.9425 107.367 35.8286 107.985 35.8286V38.0991C107.334 38.0991 106.757 38.1683 106.252 38.3066C105.756 38.445 105.324 38.7095 104.958 39.1001V49H102.724V35.8042ZM111.892 33.8145C111.656 33.8145 111.44 33.7738 111.245 33.6924C111.049 33.611 110.882 33.5011 110.744 33.3628C110.606 33.2244 110.5 33.0658 110.427 32.8867C110.354 32.6995 110.317 32.5042 110.317 32.3008C110.317 32.0973 110.354 31.9061 110.427 31.7271C110.5 31.5399 110.606 31.3771 110.744 31.2388C110.882 31.1004 111.049 30.9906 111.245 30.9092C111.44 30.8278 111.656 30.7871 111.892 30.7871C112.128 30.7871 112.343 30.8278 112.539 30.9092C112.734 30.9906 112.901 31.1004 113.039 31.2388C113.177 31.3771 113.283 31.5399 113.356 31.7271C113.43 31.9061 113.466 32.0973 113.466 32.3008C113.466 32.5042 113.43 32.6995 113.356 32.8867C113.283 33.0658 113.177 33.2244 113.039 33.3628C112.901 33.5011 112.734 33.611 112.539 33.6924C112.343 33.7738 112.128 33.8145 111.892 33.8145ZM110.732 36.0361H112.905V49H110.732V36.0361ZM116.884 29.5542H119.057V49H116.884V29.5542ZM126.418 44.9473C126.418 43.6289 126.882 42.5913 127.81 41.8345C128.745 41.0776 130.121 40.6545 131.936 40.5649V40.3086C131.936 39.5436 131.752 38.9455 131.386 38.5142C131.028 38.0828 130.536 37.8672 129.909 37.8672C129.584 37.8672 129.246 37.9282 128.896 38.0503C128.554 38.1642 128.212 38.3188 127.871 38.5142L127.041 36.561C127.553 36.3006 128.09 36.1094 128.652 35.9873C129.213 35.8652 129.722 35.8042 130.178 35.8042C130.764 35.8042 131.297 35.9059 131.777 36.1094C132.257 36.3128 132.668 36.6058 133.01 36.9883C133.352 37.3626 133.616 37.8224 133.803 38.3677C133.99 38.9129 134.084 39.5314 134.084 40.2231V49.2319L132.485 48.4507C132.176 48.6948 131.83 48.8861 131.447 49.0244C131.073 49.1628 130.666 49.2319 130.227 49.2319C129.673 49.2319 129.16 49.1221 128.688 48.9023C128.225 48.6745 127.822 48.3693 127.48 47.9868C127.146 47.6043 126.886 47.1527 126.699 46.6318C126.512 46.111 126.418 45.5495 126.418 44.9473ZM128.627 44.9839C128.627 45.285 128.672 45.5658 128.762 45.8262C128.851 46.0785 128.977 46.3022 129.14 46.4976C129.303 46.6847 129.498 46.8312 129.726 46.937C129.954 47.0428 130.206 47.0957 130.483 47.0957C130.768 47.0957 131.04 47.0428 131.301 46.937C131.561 46.8312 131.773 46.6969 131.936 46.5342V42.5181C131.415 42.5099 130.951 42.5628 130.544 42.6768C130.137 42.7826 129.791 42.9453 129.506 43.165C129.222 43.3766 129.002 43.637 128.847 43.9463C128.701 44.2474 128.627 44.5933 128.627 44.9839ZM137.661 36.0361H139.833V44.4834C139.833 46.1842 140.497 47.0347 141.823 47.0347C142.271 47.0347 142.67 46.9451 143.02 46.7661C143.378 46.5789 143.679 46.3267 143.923 46.0093V36.0361H146.096V49.2441L144.484 48.0967C144.11 48.3896 143.646 48.6501 143.093 48.8779C142.548 49.1058 141.953 49.2197 141.311 49.2197C140.806 49.2197 140.33 49.1302 139.882 48.9512C139.443 48.764 139.056 48.4954 138.723 48.1455C138.397 47.7874 138.137 47.348 137.941 46.8271C137.754 46.2982 137.661 45.6919 137.661 45.0083V36.0361ZM157.741 38.8682C158.791 36.6709 159.316 35.0392 159.316 33.9731C159.316 33.6639 159.267 33.3587 159.169 33.0576C159.08 32.7565 158.942 32.488 158.754 32.252C158.567 32.0078 158.327 31.8125 158.034 31.666C157.741 31.5195 157.395 31.4463 156.997 31.4463C156.63 31.4463 156.215 31.5195 155.751 31.666C155.296 31.8125 154.828 32.0688 154.348 32.4351L153.261 30.6528C153.806 30.1727 154.409 29.8309 155.068 29.6274C155.735 29.4159 156.394 29.3101 157.045 29.3101C157.778 29.3101 158.429 29.4281 158.999 29.6641C159.576 29.9001 160.061 30.2337 160.451 30.665C160.85 31.0882 161.151 31.5928 161.354 32.1787C161.566 32.7646 161.672 33.4035 161.672 34.0952C161.672 34.5509 161.627 34.9985 161.538 35.438C161.448 35.8774 161.31 36.3535 161.123 36.8662C160.935 37.3708 160.699 37.9282 160.415 38.5386C160.13 39.1489 159.796 39.8529 159.414 40.6504L156.411 46.8516H161.892V48.9878H152.895L157.741 38.8682ZM165.554 46.3877C165.961 46.6318 166.384 46.8109 166.823 46.9248C167.271 47.0387 167.69 47.0957 168.081 47.0957C168.585 47.0957 169.045 47.0062 169.46 46.8271C169.883 46.6481 170.241 46.3958 170.534 46.0703C170.835 45.7448 171.067 45.3501 171.23 44.8862C171.401 44.4224 171.486 43.9056 171.486 43.3359C171.486 42.7256 171.393 42.1885 171.206 41.7246C171.027 41.2526 170.774 40.8579 170.449 40.5405C170.131 40.215 169.757 39.9709 169.326 39.8081C168.894 39.6372 168.435 39.5518 167.946 39.5518C167.686 39.5518 167.421 39.5802 167.153 39.6372C166.892 39.6942 166.591 39.8 166.25 39.9546L166.689 39.0879L170.131 31.6904H165.371L165.358 29.542H173.488L169.777 37.623C171.145 38.0951 172.162 38.8234 172.829 39.8081C173.505 40.7928 173.842 41.9484 173.842 43.2749C173.842 44.1457 173.704 44.9473 173.427 45.6797C173.159 46.404 172.772 47.0306 172.268 47.5596C171.771 48.0885 171.173 48.4995 170.473 48.7925C169.773 49.0854 168.996 49.2319 168.142 49.2319C167.775 49.2319 167.413 49.2035 167.055 49.1465C166.705 49.0977 166.372 49.0285 166.054 48.939C165.737 48.8494 165.444 48.7477 165.175 48.6338C164.907 48.5117 164.675 48.3856 164.479 48.2554L165.554 46.3877ZM179.836 47.291C180.218 47.0225 180.544 46.7458 180.812 46.4609C181.089 46.1761 181.313 45.8709 181.484 45.5454C181.655 45.2118 181.781 44.8577 181.862 44.4834C181.944 44.1009 181.984 43.6818 181.984 43.2261V29.5542H184.255V43.4702C184.255 44.0968 184.198 44.695 184.084 45.2646C183.97 45.8343 183.783 46.3674 183.522 46.8638C183.27 47.3521 182.941 47.8037 182.534 48.2188C182.135 48.6338 181.643 49.0041 181.057 49.3296L179.836 47.291ZM188.125 36.0361H190.297V44.4834C190.297 46.1842 190.961 47.0347 192.287 47.0347C192.735 47.0347 193.133 46.9451 193.483 46.7661C193.841 46.5789 194.143 46.3267 194.387 46.0093V36.0361H196.56V49.2441L194.948 48.0967C194.574 48.3896 194.11 48.6501 193.557 48.8779C193.011 49.1058 192.417 49.2197 191.774 49.2197C191.27 49.2197 190.794 49.1302 190.346 48.9512C189.907 48.764 189.52 48.4954 189.187 48.1455C188.861 47.7874 188.601 47.348 188.405 46.8271C188.218 46.2982 188.125 45.6919 188.125 45.0083V36.0361ZM201.564 33.8145C201.328 33.8145 201.113 33.7738 200.917 33.6924C200.722 33.611 200.555 33.5011 200.417 33.3628C200.279 33.2244 200.173 33.0658 200.1 32.8867C200.026 32.6995 199.99 32.5042 199.99 32.3008C199.99 32.0973 200.026 31.9061 200.1 31.7271C200.173 31.5399 200.279 31.3771 200.417 31.2388C200.555 31.1004 200.722 30.9906 200.917 30.9092C201.113 30.8278 201.328 30.7871 201.564 30.7871C201.8 30.7871 202.016 30.8278 202.211 30.9092C202.407 30.9906 202.574 31.1004 202.712 31.2388C202.85 31.3771 202.956 31.5399 203.029 31.7271C203.103 31.9061 203.139 32.0973 203.139 32.3008C203.139 32.5042 203.103 32.6995 203.029 32.8867C202.956 33.0658 202.85 33.2244 202.712 33.3628C202.574 33.5011 202.407 33.611 202.211 33.6924C202.016 33.7738 201.8 33.8145 201.564 33.8145ZM200.405 36.0361H202.578V49H200.405V36.0361ZM206.557 35.8042L208.388 37.1104C208.567 36.9313 208.771 36.7645 208.999 36.6099C209.226 36.4552 209.466 36.321 209.719 36.207C209.971 36.0931 210.227 36.0036 210.488 35.9385C210.748 35.8734 211.009 35.8408 211.269 35.8408C212.571 35.8408 213.552 36.2518 214.211 37.0737C214.87 37.8875 215.2 39.0635 215.2 40.6016V49H213.027V40.626C213.027 39.7878 212.856 39.1489 212.514 38.7095C212.181 38.27 211.684 38.0503 211.025 38.0503C210.634 38.0503 210.236 38.1479 209.829 38.3433C209.43 38.5304 209.064 38.8275 208.73 39.2344V49H206.557V35.8042ZM226.833 38.8682C227.883 36.6709 228.408 35.0392 228.408 33.9731C228.408 33.6639 228.359 33.3587 228.261 33.0576C228.172 32.7565 228.033 32.488 227.846 32.252C227.659 32.0078 227.419 31.8125 227.126 31.666C226.833 31.5195 226.487 31.4463 226.088 31.4463C225.722 31.4463 225.307 31.5195 224.843 31.666C224.388 31.8125 223.92 32.0688 223.439 32.4351L222.353 30.6528C222.898 30.1727 223.5 29.8309 224.16 29.6274C224.827 29.4159 225.486 29.3101 226.137 29.3101C226.87 29.3101 227.521 29.4281 228.09 29.6641C228.668 29.9001 229.152 30.2337 229.543 30.665C229.942 31.0882 230.243 31.5928 230.446 32.1787C230.658 32.7646 230.764 33.4035 230.764 34.0952C230.764 34.5509 230.719 34.9985 230.629 35.438C230.54 35.8774 230.402 36.3535 230.214 36.8662C230.027 37.3708 229.791 37.9282 229.506 38.5386C229.222 39.1489 228.888 39.8529 228.505 40.6504L225.502 46.8516H230.983V48.9878H221.987L226.833 38.8682ZM239.26 49.2319C238.576 49.2319 237.925 49.0692 237.307 48.7437C236.696 48.4181 236.155 47.8729 235.683 47.1079C235.219 46.3348 234.849 45.3135 234.572 44.0439C234.304 42.7663 234.169 41.1794 234.169 39.2832C234.169 37.387 234.304 35.8042 234.572 34.5347C234.849 33.257 235.219 32.2357 235.683 31.4707C236.155 30.6976 236.696 30.1483 237.307 29.8228C237.925 29.4972 238.576 29.3345 239.26 29.3345C239.943 29.3345 240.59 29.4972 241.201 29.8228C241.819 30.1483 242.36 30.6976 242.824 31.4707C243.296 32.2357 243.667 33.257 243.935 34.5347C244.212 35.8042 244.35 37.387 244.35 39.2832C244.35 41.1794 244.212 42.7663 243.935 44.0439C243.667 45.3135 243.296 46.3348 242.824 47.1079C242.36 47.8729 241.819 48.4181 241.201 48.7437C240.59 49.0692 239.943 49.2319 239.26 49.2319ZM239.26 47.0957C239.602 47.0957 239.935 46.9858 240.261 46.7661C240.586 46.5464 240.875 46.1476 241.127 45.5698C241.388 44.992 241.595 44.1986 241.75 43.1895C241.913 42.1722 241.994 40.8701 241.994 39.2832C241.994 37.6963 241.913 36.3983 241.75 35.3892C241.595 34.3719 241.388 33.5744 241.127 32.9966C240.875 32.4188 240.586 32.02 240.261 31.8003C239.935 31.5806 239.602 31.4707 239.26 31.4707C238.918 31.4707 238.58 31.5806 238.247 31.8003C237.921 32.02 237.628 32.4188 237.368 32.9966C237.115 33.5744 236.912 34.3719 236.757 35.3892C236.603 36.3983 236.525 37.6963 236.525 39.2832C236.525 40.8701 236.603 42.1722 236.757 43.1895C236.912 44.1986 237.115 44.992 237.368 45.5698C237.628 46.1476 237.921 46.5464 238.247 46.7661C238.58 46.9858 238.918 47.0957 239.26 47.0957ZM251.564 38.8682C252.614 36.6709 253.139 35.0392 253.139 33.9731C253.139 33.6639 253.09 33.3587 252.993 33.0576C252.903 32.7565 252.765 32.488 252.578 32.252C252.39 32.0078 252.15 31.8125 251.857 31.666C251.564 31.5195 251.219 31.4463 250.82 31.4463C250.454 31.4463 250.039 31.5195 249.575 31.666C249.119 31.8125 248.651 32.0688 248.171 32.4351L247.084 30.6528C247.63 30.1727 248.232 29.8309 248.891 29.6274C249.558 29.4159 250.218 29.3101 250.869 29.3101C251.601 29.3101 252.252 29.4281 252.822 29.6641C253.4 29.9001 253.884 30.2337 254.274 30.665C254.673 31.0882 254.974 31.5928 255.178 32.1787C255.389 32.7646 255.495 33.4035 255.495 34.0952C255.495 34.5509 255.45 34.9985 255.361 35.438C255.271 35.8774 255.133 36.3535 254.946 36.8662C254.759 37.3708 254.523 37.9282 254.238 38.5386C253.953 39.1489 253.619 39.8529 253.237 40.6504L250.234 46.8516H255.715V48.9878H246.718L251.564 38.8682ZM259.377 46.3877C259.784 46.6318 260.207 46.8109 260.646 46.9248C261.094 47.0387 261.513 47.0957 261.904 47.0957C262.408 47.0957 262.868 47.0062 263.283 46.8271C263.706 46.6481 264.064 46.3958 264.357 46.0703C264.659 45.7448 264.89 45.3501 265.053 44.8862C265.224 44.4224 265.31 43.9056 265.31 43.3359C265.31 42.7256 265.216 42.1885 265.029 41.7246C264.85 41.2526 264.597 40.8579 264.272 40.5405C263.955 40.215 263.58 39.9709 263.149 39.8081C262.718 39.6372 262.258 39.5518 261.77 39.5518C261.509 39.5518 261.245 39.5802 260.976 39.6372C260.716 39.6942 260.415 39.8 260.073 39.9546L260.512 39.0879L263.955 31.6904H259.194L259.182 29.542H267.312L263.601 37.623C264.968 38.0951 265.985 38.8234 266.652 39.8081C267.328 40.7928 267.666 41.9484 267.666 43.2749C267.666 44.1457 267.527 44.9473 267.25 45.6797C266.982 46.404 266.595 47.0306 266.091 47.5596C265.594 48.0885 264.996 48.4995 264.296 48.7925C263.597 49.0854 262.819 49.2319 261.965 49.2319C261.599 49.2319 261.236 49.2035 260.878 49.1465C260.528 49.0977 260.195 49.0285 259.877 48.939C259.56 48.8494 259.267 48.7477 258.999 48.6338C258.73 48.5117 258.498 48.3856 258.303 48.2554L259.377 46.3877Z" fill="#303D40"/>
</svg>
